<?xml version="1.0" encoding="UTF-8"?><svg id="Camada_2" xmlns="http://www.w3.org/2000/svg" viewBox="0 0 596.58 256.09"><defs><style>.cls-1,.cls-2,.cls-3,.cls-4,.cls-5,.cls-6,.cls-7{stroke-width:0px;}.cls-2{fill:#28a811;}.cls-3{fill:#8cd867;}.cls-4{fill:#1f1e21;}.cls-5{fill:#7bcdff;}.cls-6{fill:#004385;}.cls-7{fill:#008dd5;}</style></defs><g id="Camada_1-2"><path class="cls-7" d="m117.13,141.7L14.99,203.68l12.03,11.7h0l6.17,6.05h0c6.7,6.44,17.49,6.37,24.09-.17l59.84-79.56Z"/><path class="cls-6" d="m117.13,141.7l-27.3,114.31h26.04c9.41,0,17.04-7.44,17.04-16.62l-15.78-97.68Z"/><path class="cls-5" d="m117.13,141.7L0,115.07v25.37h0c0,9.18,7.63,16.62,17.04,16.62l100.09-15.36Z"/><path class="cls-3" d="m117.13,141.7L53.61,41.96l-12.03,11.84h0l-6.2,6.05h0c-6.53,6.58-6.46,17.05.17,23.54l81.58,58.32Z"/><path class="cls-2" d="m117.09,114.27L144.39,0h-25.97c-9.41,0-17.04,7.44-17.04,16.62l15.71,97.65Z"/><path class="cls-4" d="m584.07,114.94c-18.07-13.05-42.76-13.05-60.83,0-13.33,9.35-16.36,27.46-6.78,40.46,1.88,2.55,4.17,4.78,6.78,6.62,18.08,13.08,42.81,13.08,60.9,0,13.31-9.21,16.44-27.21,6.99-40.19-1.92-2.64-4.28-4.95-6.99-6.82m-5.04,43.22c-14.98,11.35-35.93,11.35-50.91,0-11.24-8.12-13.6-23.59-5.27-34.56,1.49-1.96,3.26-3.69,5.27-5.14,14.98-11.35,35.93-11.35,50.91,0,11.24,8.18,13.55,23.7,5.16,34.67-1.46,1.91-3.2,3.61-5.16,5.03"/><path class="cls-4" d="m579.54,99.25s-.41-3.56-9.64-6.18c-6.82-1.93-21.47-4.49-34.08.63-7.5,3.06-8.25,5.55-8.25,5.55,8.5-2.41,17.32-3.59,26.17-3.52,8.7.09,17.34,1.28,25.73,3.52"/><path class="cls-4" d="m483.91,112.38c-14.56-9.76-33.77-9.76-48.32,0-6.22,4.39-9.84,11.47-9.71,18.95v39.03h6.82v-38.24c-.15-6.13,2.67-11.96,7.6-15.76,11.42-8.28,27.06-8.28,38.47,0,5.05,3.77,7.96,9.66,7.84,15.86v38.24h6.82v-39.07c.2-7.47-3.35-14.57-9.51-19.02"/><path class="cls-4" d="m399.13,85.38c-1.09-.79-2.43-1.19-3.78-1.13-1.37-.05-2.71.34-3.82,1.13-1.65,1.19-1.99,3.46-.77,5.07.22.28.48.54.77.75,1.1.8,2.45,1.21,3.82,1.16,1.36.05,2.7-.36,3.78-1.16,1.65-1.16,2.02-3.41.82-5.01-.23-.31-.51-.58-.82-.8"/><rect class="cls-4" x="392.04" y="106.46" width="6.78" height="63.94"/><path class="cls-4" d="m352.61,114.54c-17.36-12.63-41.16-12.63-58.51,0-13.49,10.29-15.88,29.3-5.34,42.47,1.56,1.94,3.35,3.69,5.34,5.21,8.29,6.41,18.63,9.75,29.21,9.44,5.02.19,10.03-.52,14.79-2.09,4.1-1.53,8.01-3.48,11.69-5.82v-6.12c-3.64,2.92-7.73,5.24-12.13,6.88-4.59,1.57-9.42,2.34-14.28,2.26-8.7.12-17.16-2.79-23.85-8.21-11.41-8.36-13.7-24.16-5.13-35.29,1.46-1.9,3.19-3.58,5.13-5.01,6.69-5.43,15.15-8.35,23.85-8.21,9.02-.32,17.82,2.68,24.67,8.41,6.13,4.9,9.69,12.22,9.71,19.95v31.92h6.82v-31.92c.13-9.35-4.3-18.21-11.93-23.87"/><path class="cls-4" d="m257.7,111.12c-5.94-4.16-13.14-6.28-20.45-6.02-5.65-.19-11.26.95-16.36,3.32-4.08,2.03-7.34,5.33-9.27,9.38-1.71-4.07-4.87-7.4-8.89-9.38-5.06-2.36-10.62-3.5-16.22-3.32-7.32-.24-14.51,1.9-20.45,6.08-5.42,3.95-8.48,10.26-8.18,16.86v42.32h6.82v-42.26c-.24-5.22,2.2-10.21,6.51-13.3,9.31-6.25,21.6-6.25,30.91,0,4.28,3.11,6.69,8.1,6.44,13.3v42.26h6.82v-42.26c-.26-5.19,2.14-10.18,6.41-13.3,4.56-3.18,10.07-4.82,15.68-4.65,5.56-.16,11.02,1.5,15.51,4.72,4.26,3.13,6.66,8.11,6.41,13.3v42.19h6.82v-42.32c.34-6.6-2.7-12.94-8.11-16.92"/></g></svg>
